<svg width="50" height="52" viewBox="0 0 50 52" fill="none" xmlns="http://www.w3.org/2000/svg">
<path d="M19.52 2.56C19.52 0.853334 20.3733 0 22.08 0H22.784C24.4907 0 25.344 0.853334 25.344 2.56V39.488C25.344 40.7253 24.9173 41.792 24.064 42.688L22.016 44.736C21.1627 45.5893 20.1173 46.016 18.88 46.016H6.528C5.29067 46.016 4.24533 45.5893 3.392 44.736L1.28 42.624C0.426667 41.7707 0 40.7253 0 39.488V2.56C0 0.853334 0.853333 0 2.56 0H3.264C4.97067 0 5.824 0.853334 5.824 2.56V37.632C5.824 39.3387 6.67733 40.192 8.384 40.192H16.96C18.6667 40.192 19.52 39.3387 19.52 37.632V2.56Z" fill="currentColor"/>
<path d="M48.2442 43.504C48.2442 44.4359 48.2442 44.9018 48.0919 45.2694C47.889 45.7594 47.4996 46.1488 47.0096 46.3518C46.642 46.504 46.1761 46.504 45.2442 46.504C44.3123 46.504 43.8464 46.504 43.4788 46.3518C42.9888 46.1488 42.5994 45.7594 42.3964 45.2694C42.2442 44.9018 42.2442 44.4359 42.2442 43.504V43.0014C42.2442 39.951 42.2442 38.4258 41.5106 37.8256C41.206 37.5765 40.8348 37.4227 40.4432 37.3836C39.5001 37.2892 38.4217 38.3677 36.2648 40.5247L26.3355 50.4546C25.6765 51.1136 25.347 51.4431 24.9794 51.5954C24.4893 51.7984 23.9386 51.7984 23.4485 51.5953C23.081 51.443 22.7515 51.1135 22.0925 50.4544C21.4338 49.7955 21.1044 49.466 20.9522 49.0985C20.7492 48.6084 20.7493 48.0579 20.9523 47.5678C21.1045 47.2003 21.4339 46.8709 22.0928 46.212L32.5225 35.7823C34.0794 34.2255 34.8578 33.447 34.9522 32.7874C35.0558 32.0641 34.7566 31.3419 34.172 30.9037C33.6388 30.504 32.516 30.504 30.2705 30.504C29.3211 30.504 28.8464 30.504 28.4788 30.3518C27.9888 30.1488 27.5994 29.7594 27.3964 29.2694C27.2442 28.9018 27.2442 28.4359 27.2442 27.504C27.2442 26.5721 27.2442 26.1062 27.3964 25.7386C27.5994 25.2486 27.9888 24.8592 28.4788 24.6562C28.8464 24.504 29.3123 24.504 30.2442 24.504H44.2442C46.1298 24.504 47.0726 24.504 47.6584 25.0898C48.2442 25.6756 48.2442 26.6184 48.2442 28.504V43.504Z" fill="currentColor"/>
</svg>
